<svg id="Capa_1" enable-background="new 0 0 512 512" height="36" viewBox="0 0 512 512" width="36" xmlns="http://www.w3.org/2000/svg"><g><path d="m455.77 199.765c0-110.327-89.438-199.765-199.765-199.765-109.91 0-198.741 87.971-199.756 197.877-.701 75.83 40.855 142.011 102.549 176.439 34.587 19.301 56.098 55.727 56.098 95.334v1.239c0 22.704 18.405 41.109 41.109 41.109 22.704 0 41.109-18.405 41.109-41.109v-1.234c0-39.8 21.86-76.113 56.562-95.6 60.927-34.212 102.094-99.441 102.094-174.29z" fill="#df75a5"/><path d="m273.435 508.123c-5.285 2.492-11.205 3.877-17.436 3.877-22.698 0-41.104-18.405-41.104-41.104v-1.246c0-39.604-21.521-76.034-56.105-95.328-61.69-34.433-103.243-100.613-102.551-176.439 1.016-109.913 89.847-197.879 199.76-197.879 5.851 0 11.632.254 17.355.75-101.685 8.77-181.273 93.124-182.231 197.129-.692 75.826 40.862 142.005 102.552 176.439 34.584 19.294 56.093 55.724 56.093 95.328v1.246c0 16.467 9.682 30.672 23.667 37.227z" fill="#dd5790"/><g><path d="m406.44 199.76c0 28.306-7.824 54.789-21.417 77.407-26.31 43.758-74.245 1.828-129.023 1.828-28.133 0-116.214 19.45-129.012-1.828-13.594-22.617-21.417-49.101-21.417-77.407 0-83.073 67.356-150.429 150.429-150.429 83.084 0 150.44 67.356 150.44 150.429z" fill="#f9f6f9"/></g><g><path d="m145.274 199.76c0 28.299 5.759 54.785 15.762 77.408 2.472 5.594 8.787 8.375 17.132 9.426-24.127 1.494-45.379.216-51.179-9.426-13.598-22.623-21.417-49.109-21.417-77.408 0-82.6 66.581-149.654 148.995-150.417-60.483 1.041-109.293 67.992-109.293 150.417z" fill="#dddaec"/></g><g><path d="m385.023 277.167c-26.31 43.758-74.245 73.033-129.023 73.033-54.766 0-102.702-29.276-129.012-73.033l62.856-105.563v-.011l38.38-21.81c12.532-21.048 43.031-21.048 55.563 0l38.38 21.81s0 .011.012.035z" fill="#365e7d"/><path d="m256.012 133.997c-5.181 0-10.362 5.262-13.386 15.798l-18.486 21.798v.011l-45.142 157.422c-21.313-12.74-39.211-30.58-52.009-51.858l62.856-105.563v-.011l38.38-21.798c6.265-10.537 17.02-15.799 27.787-15.799z" fill="#2b4d66"/><path d="m325.031 181.991c0 6.939-3.555 13.705-9.946 17.518-9.656 5.757-22.159 2.589-27.905-7.078-1.171-1.966-3.061-2.846-4.93-2.846-2.964 0-5.886 2.202-5.886 5.822v8.765c0 5.628-2.277 10.719-5.961 14.403-3.738 3.738-8.915 6.026-14.64 5.961-11.235-.129-20.118-9.635-20.118-20.87v-8.26c0-5.907-7.787-8.056-10.816-2.975-1.912 3.201-4.554 5.682-7.583 7.379-3.029 1.676-6.455 2.567-9.925 2.567-3.545 0-7.132-.924-10.397-2.868-9.667-5.757-12.835-18.249-7.078-27.905v-.011l38.377-64.445c12.535-21.052 43.028-21.052 55.563 0l38.377 64.445s0 .011.011.032c.204.474 2.857 6.961 2.857 10.366z" fill="#d0cee7"/><path d="m256.01 91.349c-5.177 0-10.365 5.263-13.383 15.789l-18.485 64.445v.011c-1.976 6.906-1.762 15.252.226 21.557-1.869 2.857-4.329 5.08-7.121 6.649-3.029 1.676-6.455 2.567-9.924 2.567-3.545 0-7.132-.924-10.397-2.868-9.667-5.757-12.835-18.249-7.078-27.905v-.011l38.377-64.445c6.26-10.526 17.023-15.789 27.785-15.789z" fill="#beb9dd"/></g></g></svg>