<svg id="Capa_1" enable-background="new 0 0 510 510" height="512" viewBox="0 0 510 510" width="512" xmlns="http://www.w3.org/2000/svg" xmlns:xlink="http://www.w3.org/1999/xlink"><radialGradient id="SVGID_1_" cx="255" cy="255" gradientUnits="userSpaceOnUse" r="196.068"><stop offset="0" stop-color="#e4003d"/><stop offset=".2203" stop-color="#e60540"/><stop offset=".4652" stop-color="#eb124b"/><stop offset=".722" stop-color="#f3285b"/><stop offset=".9854" stop-color="#fe4773"/><stop offset="1" stop-color="#ff4974"/></radialGradient><radialGradient id="SVGID_2_" cx="255" cy="255" gradientUnits="userSpaceOnUse" r="184.673"><stop offset="0" stop-color="#ff90a4"/><stop offset=".1752" stop-color="#ff979d"/><stop offset=".4339" stop-color="#ffa989"/><stop offset=".7426" stop-color="#ffc768"/><stop offset="1" stop-color="#ffe548"/></radialGradient><radialGradient id="SVGID_3_" cx="255" cy="255" gradientUnits="userSpaceOnUse" r="118.138"><stop offset="0" stop-color="#fff"/><stop offset=".2102" stop-color="#fffffc" stop-opacity=".79"/><stop offset=".3609" stop-color="#fffdf3" stop-opacity=".639"/><stop offset=".493" stop-color="#fffbe3" stop-opacity=".507"/><stop offset=".6145" stop-color="#fff8cd" stop-opacity=".386"/><stop offset=".7286" stop-color="#fff4b0" stop-opacity=".271"/><stop offset=".8374" stop-color="#ffef8d" stop-opacity=".163"/><stop offset=".9398" stop-color="#ffe964" stop-opacity=".06"/><stop offset="1" stop-color="#ffe548" stop-opacity="0"/></radialGradient><linearGradient id="lg1"><stop offset="0" stop-color="#ff4974"/><stop offset=".4497" stop-color="#fe4773"/><stop offset=".6292" stop-color="#fc406d"/><stop offset=".7605" stop-color="#f73464"/><stop offset=".8683" stop-color="#f12257"/><stop offset=".9606" stop-color="#e80c46"/><stop offset="1" stop-color="#e4003d"/></linearGradient><linearGradient id="SVGID_4_" gradientTransform="matrix(.821 -.571 .571 .821 -417.177 501.109)" gradientUnits="userSpaceOnUse" x1="676.392" x2="693.35" xlink:href="#lg1" y1="-62.605" y2="-49.218"/><linearGradient id="SVGID_5_" gradientTransform="matrix(.121 -.993 .993 .121 338.202 -97.158)" gradientUnits="userSpaceOnUse" x1="-230.316" x2="-219.811" xlink:href="#lg1" y1="-217.159" y2="-208.866"/><linearGradient id="SVGID_6_" gradientTransform="matrix(-.678 .735 -.735 -.678 1263.678 -6.03)" gradientUnits="userSpaceOnUse" x1="821.076" x2="838.033" xlink:href="#lg1" y1="351.564" y2="364.951"/><linearGradient id="lg2"><stop offset="0" stop-color="#ffe548"/><stop offset=".1758" stop-color="#ffde50"/><stop offset=".4446" stop-color="#ffca65"/><stop offset=".7709" stop-color="#ffaa87"/><stop offset="1" stop-color="#ff90a4"/></linearGradient><linearGradient id="SVGID_7_" gradientUnits="userSpaceOnUse" x1="192.461" x2="229.794" xlink:href="#lg2" y1="436.728" y2="475.394"/><linearGradient id="SVGID_8_" gradientUnits="userSpaceOnUse" x1="448.457" x2="438.457" xlink:href="#lg2" y1="310.784" y2="331.284"/><path d="m157.812 27.773 1.881 27.403c3.192 46.509-37.831 83.83-83.832 76.268l-54.296-8.926c-16.793-2.761-28.093 16.701-17.371 29.917l77.382 95.374c20.266 24.978 21.587 60.344 3.239 86.764l-60.28 86.803c-10.037 14.453 3.866 33.437 20.675 28.229l140.919-43.664c23.68-7.337 49.469-2.026 68.323 14.071l90.846 77.565c11.726 10.012 29.836 2.131 30.501-13.274l5.27-122.118c.941-21.797 11.677-42.002 29.214-54.981l92.178-68.217c14.654-10.845 6.449-34.109-11.766-33.361-53.608 2.2-90.84-52.716-68.953-101.701l20.836-46.631c7.514-16.817-11.48-33.089-26.945-23.084l-63.487 41.074c-25.268 16.348-58.022 15.327-82.224-2.562l-82.652-61.096c-12.687-9.378-30.539.407-29.458 16.147z" fill="url(#SVGID_1_)"/><path d="m183.508 87.852 1.383 20.158c2.348 34.212-27.828 61.665-61.667 56.102l-39.94-6.566c-12.353-2.031-20.665 12.285-12.778 22.007l56.922 70.157c14.908 18.374 15.879 44.389 2.383 63.824l-44.342 63.852c-7.383 10.632 2.844 24.596 15.208 20.765l103.66-32.119c17.419-5.397 36.389-1.49 50.258 10.351l66.826 57.057c8.626 7.365 21.947 1.567 22.436-9.765l3.877-89.829c.692-16.034 8.589-30.897 21.49-40.444l67.806-50.18c10.779-7.977 4.744-25.09-8.655-24.541-39.434 1.619-66.822-38.778-50.722-74.811l15.327-34.301c5.527-12.37-8.445-24.34-19.821-16.981l-46.701 30.214c-18.587 12.026-42.681 11.275-60.484-1.885l-60.799-44.942c-9.33-6.899-22.461.299-21.667 11.877z" fill="url(#SVGID_2_)"/><path d="m211.28 152.782.846 12.327c1.436 20.922-17.018 37.711-37.712 34.309l-24.425-4.015c-7.554-1.242-12.638 7.513-7.814 13.458l34.81 42.904c9.117 11.237 9.711 27.146 1.457 39.031l-27.117 39.048c-4.515 6.502 1.739 15.042 9.3 12.699l63.393-19.642c10.653-3.301 22.254-.911 30.735 6.33l40.867 34.893c5.275 4.504 13.422.958 13.721-5.971l2.371-54.935c.423-9.805 5.253-18.895 13.142-24.733l41.466-30.687c6.592-4.878 2.901-15.344-5.293-15.008-24.115.99-40.865-23.714-31.018-45.75l9.373-20.977c3.38-7.565-5.164-14.885-12.121-10.384l-28.56 18.477c-11.367 7.354-26.101 6.895-36.988-1.153l-37.181-27.484c-5.708-4.219-13.738.182-13.252 7.263z" fill="url(#SVGID_3_)"/><path d="m121.633 90.955-22.058-10.628c-9.998-4.817-16.586-16.049-15.691-26.749 1.04-12.424 11.719-19.86 23.732-16.525 10.347 2.872 18.595 12.947 19.644 23.996l2.316 24.375c.409 4.308-4.045 7.409-7.943 5.531z" fill="url(#SVGID_4_)"/><path d="m115.614 107.615-14.016 5.796c-6.353 2.627-14.259 1.032-18.83-3.8-5.307-5.61-4.331-13.612 2.169-17.781 5.599-3.591 13.657-3.239 19.191.838l12.211 8.996c2.159 1.589 1.752 4.927-.725 5.951z" fill="url(#SVGID_5_)"/><path d="m423.438 336.036 23.83 5.625c10.801 2.55 19.655 12.097 21.087 22.739 1.662 12.356-7.163 21.919-19.613 21.251-10.723-.575-20.948-8.636-24.354-19.199l-7.515-23.303c-1.327-4.118 2.354-8.107 6.565-7.113z" fill="url(#SVGID_6_)"/><path d="m222.963 446.685-5.268-23.912c-.931-4.226-6.121-5.813-9.256-2.83l-17.738 16.878c-8.04 7.65-10.868 20.36-6.736 30.271 4.798 11.507 17.243 15.312 27.655 8.455 8.968-5.905 13.73-18.024 11.343-28.862z" fill="url(#SVGID_7_)"/><path d="m457.37 309.442c-5.505-3.733-13.569-3.587-19.207.347l-12.437 8.681c-2.198 1.534-1.876 4.881.574 5.968l13.863 6.153c6.284 2.789 14.228 1.396 18.921-3.318 5.449-5.472 4.677-13.496-1.714-17.831z" fill="url(#SVGID_8_)"/></svg>