<svg id="Capa_1" enable-background="new 0 0 512 512" height="512" viewBox="0 0 512 512" width="512" xmlns="http://www.w3.org/2000/svg"><path d="m191.939 200.001c-3.831-3.814-5.305-9.387-3.857-14.586l31.162-111.879c.693-2.489 2.022-4.758 3.857-6.584l62.564-62.292c5.871-5.846 15.391-5.846 21.263 0l200.389 199.517c2.82 2.808 4.404 6.615 4.403 10.585 0 3.971-1.584 7.778-4.403 10.585l-62.564 62.292c-1.93 1.922-4.349 3.284-6.997 3.94l-114.906 28.502c-5.12 1.27-10.534-.225-14.265-3.94z" fill="#b0ac9b"/><path d="m507.316 204.177-100.195-99.759-155.589 154.917 57.053 56.805c3.731 3.715 9.145 5.211 14.266 3.94l114.904-28.501c2.648-.656 5.067-2.019 6.997-3.94l62.564-62.292c2.819-2.807 4.404-6.615 4.404-10.585s-1.584-7.777-4.404-10.585z" fill="#a19d8d"/><path d="m306.899 4.632c-5.871-5.846-15.391-5.846-21.263 0l-10.629 10.583 221.648 220.69 10.632-10.585c2.819-2.807 4.404-6.615 4.403-10.585.001-3.969-1.582-7.775-4.4-10.582l-12.527-12.473z" fill="#ff3d4a"/><path d="m507.29 204.152-12.527-12.473-87.683-87.302-21.262 21.17 110.837 110.358 10.632-10.585c2.819-2.807 4.404-6.615 4.403-10.585.001-3.97-1.582-7.776-4.4-10.583z" fill="#c20020"/><path d="m19.261 511.383c-11.274 3.273-21.796-7.01-18.718-18.294l27.954-102.503c11.389-41.763 32.2-78.299 63.187-108.65l278.756-277.551c5.872-5.846 15.391-5.846 21.263 0l115.893 115.39c5.872 5.846 5.872 15.325 0 21.171l-278.757 277.552c-28.716 28.376-65.986 51.008-104.776 62.459z" fill="#edeade"/><path d="m507.596 119.774-57.949-57.698-446.28 444.351c3.595 4.402 9.626 6.776 15.894 4.956l104.801-30.426c38.79-11.45 76.06-34.083 104.776-62.459l278.758-277.553c5.872-5.846 5.872-15.324 0-21.171z" fill="#c4c0ad"/><path d="m370.44 4.385-10.631 10.585 137.155 136.562 10.632-10.587c5.864-5.838 5.87-15.299.022-21.147l-115.915-115.414c-5.872-5.846-15.391-5.845-21.263.001z" fill="#ff3d4a"/><path d="m507.618 119.799-57.972-57.721-21.263 21.171 68.58 68.284 10.632-10.587c5.865-5.839 5.871-15.299.023-21.147z" fill="#c20020"/><path d="m.543 493.089c-3.077 11.284 7.444 21.567 18.718 18.294l104.801-30.426c38.79-11.45 76.06-34.083 104.776-62.459l-137.154-136.562c-30.987 30.351-51.798 66.887-63.187 108.65z" fill="#ff3d4a"/><path d="m3.367 506.427c3.595 4.402 9.626 6.776 15.894 4.956l104.801-30.426c38.79-11.45 76.06-34.083 104.776-62.459l-68.58-68.284z" fill="#c20020"/><path d="m255.717 276.34 24.588-24.481c5.872-5.846 5.872-15.325 0-21.171-5.871-5.845-15.391-5.846-21.262 0l-24.588 24.481c11.383.799 20.459 9.836 21.262 21.171z" fill="#006099"/><path d="m280.305 230.688-31.251 31.116c3.792 3.776 6.262 8.869 6.663 14.536l24.588-24.481c5.871-5.846 5.871-15.325 0-21.171z" fill="#00213b"/><path d="m260.848 324.157-8.984-33.384c-4.131 6.077-11.118 10.072-19.043 10.072-3.588 0-6.971-.842-9.997-2.303l8.979 33.364c.707 2.63 2.076 4.907 3.88 6.703 3.674 3.658 9.154 5.317 14.534 3.882 8.02-2.139 12.78-10.347 10.631-18.334z" fill="#00213b"/><path d="m209.841 277.966c0-7.891 4.012-14.847 10.116-18.96l-33.53-8.945c-8.021-2.14-16.265 2.599-18.414 10.585-1.442 5.357.225 10.813 3.899 14.471 1.804 1.796 4.092 3.159 6.732 3.863l33.509 8.939c-1.465-3.012-2.311-6.38-2.312-9.953z" fill="#006099"/></svg>